<svg xmlns="http://www.w3.org/2000/svg" xmlns:xlink="http://www.w3.org/1999/xlink" width="500" zoomAndPan="magnify" viewBox="0 0 375 374.999991" height="500" preserveAspectRatio="xMidYMid meet" version="1.0"><defs><g/><clipPath id="d7db84206d"><path d="M 80 54 L 288 54 L 288 187.328125 L 80 187.328125 Z M 80 54 " clip-rule="nonzero"/></clipPath></defs><path fill="#2563eb" d="M 280.925781 102.71875 L 192.015625 134.921875 L 192.015625 137.046875 L 281.539062 104.558594 C 283.050781 103.945312 282.15625 102.105469 280.925781 102.71875 Z M 280.925781 102.71875 " fill-opacity="1" fill-rule="nonzero"/><g clip-path="url(#d7db84206d)"><path fill="#2563eb" d="M 283.335938 88.457031 L 193.808594 55.6875 C 189.84375 54.179688 184.082031 53.847656 181.675781 54.792969 L 87 89.355469 C 78.21875 92.378906 77.273438 111.21875 88.230469 115.46875 L 104.613281 121.226562 C 104.613281 121.511719 104.613281 121.511719 104.613281 121.839844 C 101.59375 127.320312 100.363281 133.976562 99.46875 142.804688 C 97.34375 144.316406 95.832031 146.441406 95.832031 149.179688 C 95.832031 150.078125 96.113281 151.023438 96.445312 151.917969 C 91.582031 158.578125 87.050781 163.15625 82.46875 165.566406 C 83.367188 166.460938 83.980469 167.691406 84.878906 168.585938 C 87 167.691406 89.125 166.460938 90.636719 164.621094 C 89.410156 166.746094 88.230469 168.585938 86.386719 170.097656 C 90.355469 173.449219 95.171875 174.960938 101.875 174.632812 C 106.410156 167.027344 108.25 160.371094 107.636719 154.609375 C 109.476562 153.382812 110.375 151.257812 110.375 149.132812 C 110.375 146.726562 109.148438 144.601562 107.351562 143.371094 C 108.25 135.488281 109.476562 129.726562 111.601562 125.476562 C 114.011719 120.945312 117.695312 117.589844 123.453125 115.136719 L 185.027344 92.425781 C 187.152344 91.527344 188.046875 89.402344 187.433594 87.277344 C 186.539062 85.4375 184.695312 84.253906 182.570312 84.871094 C 189.230469 82.460938 194.707031 92.753906 187.433594 95.777344 L 125.816406 118.535156 C 121.566406 120.378906 118.542969 122.785156 116.089844 125.523438 L 119.441406 126.753906 L 119.441406 161.363281 C 119.15625 177.132812 155.230469 187.191406 186.492188 187.472656 C 216.238281 187.472656 248.675781 176.566406 248.109375 161.363281 L 248.109375 131.285156 L 189.84375 148.898438 L 284.515625 114.285156 C 287.253906 113.390625 285.742188 110.652344 283.617188 111.546875 L 192.582031 144.316406 C 181.957031 145.828125 180.730469 133.078125 188.945312 128.214844 C 191.355469 126.703125 202.921875 123.070312 206.226562 121.839844 L 285.742188 92.707031 C 288.527344 91.8125 287.300781 89.6875 283.335938 88.457031 Z M 283.335938 88.457031 " fill-opacity="1" fill-rule="nonzero"/></g><path fill="#2563eb" d="M 280.925781 98.183594 L 192.015625 130.386719 L 192.015625 132.511719 L 281.539062 99.980469 C 283.050781 99.414062 282.15625 97.570312 280.925781 98.183594 Z M 280.925781 98.183594 " fill-opacity="1" fill-rule="nonzero"/><path fill="#2563eb" d="M 280.925781 107.296875 L 192.015625 139.5 L 192.015625 141.625 L 281.539062 109.140625 C 283.050781 108.480469 282.15625 106.683594 280.925781 107.296875 Z M 280.925781 107.296875 " fill-opacity="1" fill-rule="nonzero"/><g fill="#1e40af" fill-opacity="1"><g transform="translate(132.303419, 267.910429)"><g><path d="M 19.15625 -18.796875 L 10.90625 0 L 8.25 0 L -0.03125 -18.796875 L 2.875 -18.796875 L 9.640625 -3.359375 L 16.46875 -18.796875 Z M 19.15625 -18.796875 "/></g></g></g><g fill="#1e40af" fill-opacity="1"><g transform="translate(157.34068, 267.910429)"><g><path d="M 2.8125 -18.796875 L 5.5 -18.796875 L 5.5 0 L 2.8125 0 Z M 2.8125 -18.796875 "/></g></g></g><g fill="#1e40af" fill-opacity="1"><g transform="translate(171.580622, 267.910429)"><g><path d="M 2.8125 -18.796875 L 10.75 -18.796875 C 12.726562 -18.796875 14.488281 -18.398438 16.03125 -17.609375 C 17.570312 -16.828125 18.765625 -15.722656 19.609375 -14.296875 C 20.460938 -12.878906 20.890625 -11.25 20.890625 -9.40625 C 20.890625 -7.5625 20.460938 -5.925781 19.609375 -4.5 C 18.765625 -3.070312 17.570312 -1.960938 16.03125 -1.171875 C 14.488281 -0.390625 12.726562 0 10.75 0 L 2.8125 0 Z M 10.578125 -2.34375 C 12.097656 -2.34375 13.4375 -2.632812 14.59375 -3.21875 C 15.75 -3.8125 16.640625 -4.640625 17.265625 -5.703125 C 17.890625 -6.773438 18.203125 -8.007812 18.203125 -9.40625 C 18.203125 -10.800781 17.890625 -12.03125 17.265625 -13.09375 C 16.640625 -14.15625 15.75 -14.984375 14.59375 -15.578125 C 13.4375 -16.171875 12.097656 -16.46875 10.578125 -16.46875 L 5.5 -16.46875 L 5.5 -2.34375 Z M 10.578125 -2.34375 "/></g></g></g><g fill="#1e40af" fill-opacity="1"><g transform="translate(199.679789, 267.910429)"><g><path d="M 10.015625 -6.5 L 10.015625 0 L 7.359375 0 L 7.359375 -6.546875 L -0.109375 -18.796875 L 2.765625 -18.796875 L 8.78125 -8.890625 L 14.828125 -18.796875 L 17.484375 -18.796875 Z M 10.015625 -6.5 "/></g></g></g><g fill="#1e40af" fill-opacity="1"><g transform="translate(222.971206, 267.910429)"><g><path d="M 14.796875 -4.703125 L 4.8125 -4.703125 L 2.734375 0 L -0.03125 0 L 8.484375 -18.796875 L 11.140625 -18.796875 L 19.6875 0 L 16.875 0 Z M 13.859375 -6.84375 L 9.796875 -16.0625 L 5.75 -6.84375 Z M 13.859375 -6.84375 "/></g></g></g><g fill="#1e40af" fill-opacity="1"><g transform="translate(6.88922, 229.478868)"><g><path d="M 16.40625 0.46875 C 13.613281 0.46875 11.082031 -0.140625 8.8125 -1.359375 C 6.550781 -2.578125 4.769531 -4.265625 3.46875 -6.421875 C 2.175781 -8.578125 1.53125 -11.019531 1.53125 -13.75 C 1.53125 -16.46875 2.175781 -18.90625 3.46875 -21.0625 C 4.769531 -23.226562 6.550781 -24.914062 8.8125 -26.125 C 11.082031 -27.34375 13.628906 -27.953125 16.453125 -27.953125 C 18.835938 -27.953125 20.988281 -27.53125 22.90625 -26.6875 C 24.832031 -25.851562 26.453125 -24.65625 27.765625 -23.09375 L 23.671875 -19.3125 C 21.816406 -21.457031 19.515625 -22.53125 16.765625 -22.53125 C 15.066406 -22.53125 13.546875 -22.15625 12.203125 -21.40625 C 10.867188 -20.664062 9.828125 -19.628906 9.078125 -18.296875 C 8.335938 -16.960938 7.96875 -15.445312 7.96875 -13.75 C 7.96875 -12.039062 8.335938 -10.519531 9.078125 -9.1875 C 9.828125 -7.851562 10.867188 -6.8125 12.203125 -6.0625 C 13.546875 -5.320312 15.066406 -4.953125 16.765625 -4.953125 C 19.515625 -4.953125 21.816406 -6.035156 23.671875 -8.203125 L 27.765625 -4.4375 C 26.453125 -2.84375 24.828125 -1.625 22.890625 -0.78125 C 20.953125 0.0507812 18.789062 0.46875 16.40625 0.46875 Z M 16.40625 0.46875 "/></g></g></g><g fill="#1e40af" fill-opacity="1"><g transform="translate(38.533813, 229.478868)"><g><path d="M 28.46875 -27.484375 L 28.46875 0 L 22.109375 0 L 22.109375 -11.265625 L 9.625 -11.265625 L 9.625 0 L 3.265625 0 L 3.265625 -27.484375 L 9.625 -27.484375 L 9.625 -16.65625 L 22.109375 -16.65625 L 22.109375 -27.484375 Z M 28.46875 -27.484375 "/></g></g></g><g fill="#1e40af" fill-opacity="1"><g transform="translate(73.122978, 229.478868)"><g><path d="M 28.46875 -27.484375 L 28.46875 0 L 22.109375 0 L 22.109375 -11.265625 L 9.625 -11.265625 L 9.625 0 L 3.265625 0 L 3.265625 -27.484375 L 9.625 -27.484375 L 9.625 -16.65625 L 22.109375 -16.65625 L 22.109375 -27.484375 Z M 28.46875 -27.484375 "/></g></g></g><g fill="#1e40af" fill-opacity="1"><g transform="translate(107.712139, 229.478868)"><g><path d="M 21.359375 -5.890625 L 8.59375 -5.890625 L 6.171875 0 L -0.359375 0 L 11.890625 -27.484375 L 18.1875 -27.484375 L 30.46875 0 L 23.796875 0 Z M 19.359375 -10.71875 L 15 -21.25 L 10.640625 -10.71875 Z M 19.359375 -10.71875 "/></g></g></g><g fill="#1e40af" fill-opacity="1"><g transform="translate(140.652349, 229.478868)"><g><path d="M 8.953125 -22.296875 L 0.15625 -22.296875 L 0.15625 -27.484375 L 24.109375 -27.484375 L 24.109375 -22.296875 L 15.3125 -22.296875 L 15.3125 0 L 8.953125 0 Z M 8.953125 -22.296875 "/></g></g></g><g fill="#1e40af" fill-opacity="1"><g transform="translate(167.781964, 229.478868)"><g><path d="M 8.953125 -22.296875 L 0.15625 -22.296875 L 0.15625 -27.484375 L 24.109375 -27.484375 L 24.109375 -22.296875 L 15.3125 -22.296875 L 15.3125 0 L 8.953125 0 Z M 8.953125 -22.296875 "/></g></g></g><g fill="#1e40af" fill-opacity="1"><g transform="translate(194.91158, 229.478868)"><g><path d="M 3.265625 -27.484375 L 9.625 -27.484375 L 9.625 0 L 3.265625 0 Z M 3.265625 -27.484375 "/></g></g></g><g fill="#1e40af" fill-opacity="1"><g transform="translate(210.655556, 229.478868)"><g><path d="M 12.296875 0.46875 C 10.117188 0.46875 8.015625 0.175781 5.984375 -0.40625 C 3.953125 -1 2.320312 -1.765625 1.09375 -2.703125 L 3.265625 -7.5 C 4.441406 -6.632812 5.835938 -5.941406 7.453125 -5.421875 C 9.078125 -4.898438 10.703125 -4.640625 12.328125 -4.640625 C 14.128906 -4.640625 15.460938 -4.90625 16.328125 -5.4375 C 17.191406 -5.976562 17.625 -6.691406 17.625 -7.578125 C 17.625 -8.234375 17.367188 -8.773438 16.859375 -9.203125 C 16.347656 -9.640625 15.691406 -9.988281 14.890625 -10.25 C 14.097656 -10.507812 13.019531 -10.796875 11.65625 -11.109375 C 9.5625 -11.609375 7.847656 -12.101562 6.515625 -12.59375 C 5.179688 -13.09375 4.035156 -13.894531 3.078125 -15 C 2.128906 -16.101562 1.65625 -17.566406 1.65625 -19.390625 C 1.65625 -20.992188 2.082031 -22.441406 2.9375 -23.734375 C 3.800781 -25.035156 5.101562 -26.0625 6.84375 -26.8125 C 8.59375 -27.570312 10.722656 -27.953125 13.234375 -27.953125 C 14.984375 -27.953125 16.695312 -27.742188 18.375 -27.328125 C 20.050781 -26.910156 21.519531 -26.304688 22.78125 -25.515625 L 20.8125 -20.6875 C 18.269531 -22.132812 15.726562 -22.859375 13.1875 -22.859375 C 11.40625 -22.859375 10.085938 -22.566406 9.234375 -21.984375 C 8.390625 -21.410156 7.96875 -20.65625 7.96875 -19.71875 C 7.96875 -18.769531 8.457031 -18.066406 9.4375 -17.609375 C 10.425781 -17.148438 11.925781 -16.695312 13.9375 -16.25 C 16.03125 -15.757812 17.742188 -15.265625 19.078125 -14.765625 C 20.410156 -14.265625 21.554688 -13.476562 22.515625 -12.40625 C 23.472656 -11.332031 23.953125 -9.878906 23.953125 -8.046875 C 23.953125 -6.472656 23.515625 -5.039062 22.640625 -3.75 C 21.765625 -2.457031 20.445312 -1.429688 18.6875 -0.671875 C 16.9375 0.0859375 14.804688 0.46875 12.296875 0.46875 Z M 12.296875 0.46875 "/></g></g></g><g fill="#1e40af" fill-opacity="1"><g transform="translate(238.570383, 229.478868)"><g><path d="M 21.828125 -14.171875 L 27.640625 -14.171875 L 27.640625 -3.03125 C 26.148438 -1.894531 24.421875 -1.023438 22.453125 -0.421875 C 20.492188 0.171875 18.519531 0.46875 16.53125 0.46875 C 13.675781 0.46875 11.109375 -0.140625 8.828125 -1.359375 C 6.554688 -2.578125 4.769531 -4.265625 3.46875 -6.421875 C 2.175781 -8.578125 1.53125 -11.019531 1.53125 -13.75 C 1.53125 -16.46875 2.175781 -18.90625 3.46875 -21.0625 C 4.769531 -23.226562 6.570312 -24.914062 8.875 -26.125 C 11.175781 -27.34375 13.769531 -27.953125 16.65625 -27.953125 C 19.0625 -27.953125 21.242188 -27.546875 23.203125 -26.734375 C 25.171875 -25.921875 26.820312 -24.742188 28.15625 -23.203125 L 24.0625 -19.4375 C 22.101562 -21.5 19.738281 -22.53125 16.96875 -22.53125 C 15.207031 -22.53125 13.644531 -22.164062 12.28125 -21.4375 C 10.925781 -20.707031 9.867188 -19.671875 9.109375 -18.328125 C 8.347656 -16.992188 7.96875 -15.46875 7.96875 -13.75 C 7.96875 -12.039062 8.347656 -10.519531 9.109375 -9.1875 C 9.867188 -7.851562 10.921875 -6.8125 12.265625 -6.0625 C 13.617188 -5.320312 15.160156 -4.953125 16.890625 -4.953125 C 18.722656 -4.953125 20.367188 -5.34375 21.828125 -6.125 Z M 21.828125 -14.171875 "/></g></g></g><g fill="#1e40af" fill-opacity="1"><g transform="translate(271.706896, 229.478868)"><g><path d="M 21.359375 -5.890625 L 8.59375 -5.890625 L 6.171875 0 L -0.359375 0 L 11.890625 -27.484375 L 18.1875 -27.484375 L 30.46875 0 L 23.796875 0 Z M 19.359375 -10.71875 L 15 -21.25 L 10.640625 -10.71875 Z M 19.359375 -10.71875 "/></g></g></g><g fill="#1e40af" fill-opacity="1"><g transform="translate(304.647092, 229.478868)"><g><path d="M 20.765625 0 L 15.46875 -7.65625 L 9.625 -7.65625 L 9.625 0 L 3.265625 0 L 3.265625 -27.484375 L 15.15625 -27.484375 C 17.59375 -27.484375 19.707031 -27.078125 21.5 -26.265625 C 23.289062 -25.453125 24.671875 -24.300781 25.640625 -22.8125 C 26.609375 -21.320312 27.09375 -19.554688 27.09375 -17.515625 C 27.09375 -15.472656 26.597656 -13.710938 25.609375 -12.234375 C 24.628906 -10.753906 23.238281 -9.617188 21.4375 -8.828125 L 27.609375 0 Z M 20.65625 -17.515625 C 20.65625 -19.054688 20.15625 -20.238281 19.15625 -21.0625 C 18.164062 -21.882812 16.710938 -22.296875 14.796875 -22.296875 L 9.625 -22.296875 L 9.625 -12.71875 L 14.796875 -12.71875 C 16.710938 -12.71875 18.164062 -13.132812 19.15625 -13.96875 C 20.15625 -14.8125 20.65625 -15.992188 20.65625 -17.515625 Z M 20.65625 -17.515625 "/></g></g></g><g fill="#1e40af" fill-opacity="1"><g transform="translate(336.370197, 229.478868)"><g><path d="M 28.46875 -27.484375 L 28.46875 0 L 22.109375 0 L 22.109375 -11.265625 L 9.625 -11.265625 L 9.625 0 L 3.265625 0 L 3.265625 -27.484375 L 9.625 -27.484375 L 9.625 -16.65625 L 22.109375 -16.65625 L 22.109375 -27.484375 Z M 28.46875 -27.484375 "/></g></g></g></svg>